<svg width="225" height="55" viewBox="0 0 225 55" fill="none" xmlns="http://www.w3.org/2000/svg">
<path fill-rule="evenodd" clip-rule="evenodd" d="M28.7298 5.8696C41.1412 5.8696 51.2628 15.458 51.2628 27.2129C51.2628 38.9691 41.1399 48.5563 28.7298 48.5563C16.3196 48.5563 6.19677 38.9691 6.19677 27.2129C6.19677 15.4568 16.3196 5.8696 28.7298 5.8696ZM28.7298 0C44.553 0 57.4595 12.2239 57.4595 27.2129C57.4595 42.202 44.553 54.4258 28.7298 54.4258C12.9052 54.4258 0 42.202 0 27.2129C0 12.2239 12.9065 0 28.7298 0Z" fill="#F7F7F7"/>
<path fill-rule="evenodd" clip-rule="evenodd" d="M14.526 16.0068L14.5388 20.609H16.7519L16.757 33.7841H14.5388L14.5234 38.4177H23.7047L23.7188 33.7841H21.7628L21.7743 21.8389L27.0091 38.4177H30.5066L35.6467 22.0594L35.6544 33.7841H33.7291L33.7137 38.4177H42.9219L42.9372 33.7841H40.6908L40.6857 20.609H42.9308L42.9193 16.0068H32.9743L28.7745 30.6336L24.6322 16.0068H14.526ZM69.143 43.9274V23.5062H76.179L80.4018 37.4386L84.5748 23.5062H91.6274V43.9274H87.2638V27.8527L82.6393 43.9274H78.1132L73.5066 27.8527V43.9274H69.143ZM99.1751 33.6484L95.1262 33.0049C95.5803 31.5751 96.362 30.5197 97.4724 29.829C98.5892 29.1456 100.237 28.7966 102.427 28.7966C104.423 28.7966 105.901 29.0074 106.878 29.4218C107.849 29.8338 108.537 30.3561 108.932 30.9959C109.329 31.632 109.528 32.7965 109.528 34.499L109.48 39.0684C109.48 40.3674 109.55 41.3258 109.696 41.9462C109.836 42.5594 110.108 43.2246 110.498 43.9274H106.081C105.92 43.5485 105.777 43.1632 105.652 42.7726C105.607 42.6166 105.554 42.4626 105.495 42.311C104.778 42.9325 103.95 43.4285 103.05 43.7759C102.183 44.1007 101.256 44.2606 100.269 44.2606C98.5354 44.2606 97.1628 43.8462 96.165 43.0247C95.162 42.1959 94.6644 41.1501 94.6644 39.8863C94.6644 39.0526 94.8921 38.3074 95.3475 37.6495C95.8029 36.9939 96.4426 36.4947 97.2613 36.1469C98.08 35.8016 99.2672 35.4962 100.811 35.2357C102.893 34.8928 104.341 34.5681 105.143 34.2748V33.8846C105.143 33.1297 104.93 32.5978 104.508 32.273C104.086 31.9531 103.289 31.7932 102.112 31.7932C101.315 31.7932 100.697 31.9301 100.252 32.2076C99.8083 32.4778 99.4514 32.9577 99.1751 33.6484ZM105.143 36.8255C104.574 36.9915 103.668 37.1902 102.427 37.4241C101.191 37.6555 100.384 37.8857 99.9989 38.1039C99.4181 38.471 99.1265 38.9278 99.1265 39.484C99.1265 40.0353 99.3593 40.5067 99.8249 40.9066C100.291 41.304 100.882 41.5052 101.603 41.5052C102.41 41.5052 103.175 41.2713 103.907 40.8096C104.449 40.4595 104.801 40.0269 104.97 39.5131C105.089 39.1799 105.144 38.5425 105.144 37.6058L105.143 36.8255ZM128.209 33.509L123.807 34.2045C123.663 33.4327 123.325 32.8535 122.801 32.4621C122.274 32.0743 121.597 31.878 120.761 31.878C119.645 31.878 118.763 32.2161 118.101 32.8862C117.438 33.5611 117.109 34.6892 117.109 36.2681C117.109 38.0215 117.444 39.2647 118.118 39.9857C118.788 40.7079 119.691 41.0702 120.822 41.0702C121.674 41.0702 122.361 40.8617 122.903 40.4389C123.445 40.016 123.825 39.2865 124.048 38.2614L128.433 38.9121C127.979 40.6751 127.099 42.0129 125.809 42.9096C124.52 43.8135 122.792 44.2606 120.617 44.2606C118.148 44.2606 116.182 43.5809 114.718 42.2153C113.25 40.8496 112.518 38.9581 112.518 36.542C112.518 34.1015 113.255 32.2015 114.723 30.8408C116.197 29.4776 118.189 28.7954 120.697 28.7954C122.751 28.7954 124.383 29.1856 125.597 29.9623C126.805 30.7378 127.677 31.9216 128.209 33.509ZM131.002 43.9274V23.5062H135.469V34.3427L140.689 29.1359H146.186L140.421 34.5365L146.595 43.9274H141.787L137.545 37.2872L135.469 39.192V43.9274H131.002ZM158.589 39.2199L163.04 39.873C162.466 41.3028 161.566 42.391 160.332 43.1386C159.1 43.8886 157.556 44.2606 155.702 44.2606C152.769 44.2606 150.6 43.4258 149.191 41.7402C148.081 40.3964 147.521 38.6916 147.521 36.6425C147.521 34.1912 148.253 32.2694 149.718 30.8796C151.175 29.4921 153.023 28.7966 155.257 28.7966C157.766 28.7966 159.745 29.5261 161.199 30.9789C162.646 32.4342 163.341 34.6614 163.28 37.6604H152.097C152.129 38.8224 152.487 39.7239 153.177 40.3674C153.864 41.0132 154.726 41.3355 155.751 41.3355C156.45 41.3355 157.038 41.1695 157.512 40.8363C157.987 40.5007 158.351 39.9627 158.589 39.2199ZM158.844 35.2648C158.812 34.1282 158.482 33.2679 157.847 32.6778C157.213 32.0876 156.438 31.7932 155.527 31.7932C154.552 31.7932 153.75 32.1082 153.115 32.7299C152.481 33.3478 152.166 34.1948 152.179 35.2648H158.844ZM181.829 43.9274H177.369V36.3784C177.369 34.7813 177.272 33.7489 177.081 33.2776C176.904 32.8269 176.577 32.4432 176.149 32.1846C175.719 31.9265 175.204 31.7944 174.602 31.7944C173.828 31.7944 173.136 31.981 172.521 32.3506C171.908 32.7274 171.486 33.217 171.259 33.8301C171.033 34.4432 170.916 35.5738 170.916 37.229V43.9286H166.457V29.1359H170.597V31.3085C172.07 29.6351 173.925 28.7978 176.159 28.7978C177.081 28.7885 177.997 28.9469 178.857 29.2643C179.672 29.5794 180.288 29.9744 180.705 30.4591C181.122 30.9414 181.415 31.4915 181.58 32.1034C181.748 32.7165 181.827 33.5926 181.827 34.7328V43.9274H181.829ZM184.134 43.9274V40.8763L190.455 34.5123C191.198 33.7529 191.965 33.0142 192.753 32.2973C192.237 32.3251 191.553 32.3397 190.709 32.3494L184.75 32.3772V29.1347H198.692V31.9059L192.248 38.4262L189.977 40.5843C190.745 40.5367 191.513 40.5036 192.281 40.4849H199.187V43.9262L184.134 43.9274ZM201.765 27.1293V23.5062H206.224V27.1293H201.765ZM201.765 43.9274V29.1359H206.224V43.9274H201.765ZM220.136 39.2199L224.587 39.873C224.012 41.3028 223.113 42.391 221.879 43.1386C220.647 43.8886 219.102 44.2606 217.249 44.2606C214.315 44.2606 212.147 43.4258 210.737 41.7402C209.626 40.3964 209.068 38.6916 209.068 36.6425C209.068 34.1912 209.8 32.2694 211.264 30.8796C212.722 29.4921 214.57 28.7966 216.804 28.7966C219.312 28.7966 221.291 29.5261 222.746 30.9789C224.193 32.4342 224.887 34.6614 224.827 37.6604H213.644C213.676 38.8224 214.034 39.7239 214.724 40.3674C215.411 41.0132 216.273 41.3355 217.297 41.3355C217.997 41.3355 218.584 41.1695 219.059 40.8363C219.534 40.5007 219.898 39.9627 220.136 39.2199ZM220.391 35.2648C220.359 34.1282 220.029 33.2679 219.394 32.6778C218.76 32.0876 217.984 31.7932 217.074 31.7932C216.099 31.7932 215.297 32.1082 214.662 32.7299C214.028 33.3478 213.713 34.1948 213.726 35.2648H220.391Z" fill="#F7F7F7"/>
<path fill-rule="evenodd" clip-rule="evenodd" d="M75.7963 10.1653H77.0296V14.5226C77.0296 15.28 76.9234 15.8822 76.7097 16.3281C76.4974 16.774 76.1162 17.1351 75.5635 17.4138C75.0109 17.6949 74.2868 17.8343 73.39 17.8343C72.5176 17.8343 71.8025 17.7131 71.2498 17.4683C70.6946 17.226 70.2993 16.8734 70.0627 16.4117C69.8234 15.95 69.707 15.3212 69.707 14.5214V10.1641H70.9377V14.5166C70.9377 15.1709 71.0132 15.6544 71.1628 15.9634C71.3125 16.2736 71.5722 16.5123 71.9355 16.6807C72.3027 16.8491 72.7517 16.9328 73.28 16.9328C74.1857 16.9328 74.8318 16.7655 75.2181 16.4323C75.6019 16.1003 75.7951 15.4617 75.7951 14.5142L75.7963 10.1653ZM78.9357 17.7058V12.2434H79.9629V13.0201C80.4593 12.4203 81.1744 12.1198 82.1095 12.1198C82.5163 12.1198 82.8899 12.1792 83.2302 12.2967C83.573 12.4155 83.8263 12.5706 83.9952 12.7632C84.1666 12.9547 84.2843 13.1825 84.3534 13.4466C84.3943 13.6187 84.416 13.9192 84.416 14.3469V17.7058H83.2711V14.3833C83.2711 14.0064 83.2276 13.7241 83.1393 13.5363C83.0404 13.341 82.8738 13.1836 82.6673 13.0904C82.4197 12.9734 82.1456 12.9156 81.869 12.922C81.3816 12.922 80.9633 13.048 80.6077 13.2976C80.2546 13.5484 80.0793 14.0234 80.0793 14.7238V17.7071L78.9357 17.7058ZM86.1738 11.2304V10.1653H87.3187V11.2304H86.1738ZM86.1738 17.7058V12.2434H87.3187V17.7058H86.1738ZM90.9313 17.7058L88.3651 12.2434H89.5728L91.0209 15.515C91.177 15.8677 91.3202 16.2348 91.452 16.6153C91.5543 16.3281 91.6951 15.9816 91.8767 15.5768L93.3773 12.2434H94.5517L91.9983 17.7058H90.9313ZM100.177 15.9464L101.359 16.064C101.19 16.6017 100.822 17.064 100.324 17.3666C99.8184 17.6743 99.1762 17.8282 98.392 17.8282C97.4057 17.8282 96.6228 17.5822 96.0471 17.0903C95.4676 16.5995 95.1798 15.9089 95.1798 15.0207C95.1798 14.101 95.4728 13.3873 96.0561 12.8808C96.642 12.373 97.398 12.1186 98.3306 12.1186C99.2325 12.1186 99.9694 12.3682 100.54 12.865C101.112 13.3618 101.398 14.0622 101.398 14.9625C101.398 15.0182 101.396 15.1018 101.392 15.2109H96.3618C96.4028 15.8119 96.6139 16.2712 96.9912 16.5898C97.3686 16.9097 97.8368 17.0697 98.401 17.0697C98.8193 17.0697 99.1775 16.98 99.473 16.8007C99.7698 16.6226 100.004 16.339 100.177 15.9464ZM96.4245 14.4487H100.191C100.14 13.9907 99.995 13.6441 99.7596 13.4163C99.395 13.0601 98.9229 12.8808 98.3447 12.8808C97.8202 12.8808 97.3776 13.0225 97.0194 13.3073C96.6612 13.592 96.4642 13.9737 96.4245 14.4487ZM102.782 17.7058V12.2434H103.81V13.071C104.072 12.6845 104.315 12.4288 104.538 12.3052C104.759 12.1816 105.003 12.1198 105.271 12.1198C105.657 12.1198 106.047 12.2204 106.445 12.4179L106.05 13.2782C105.792 13.1483 105.505 13.0789 105.213 13.0758C104.974 13.0731 104.74 13.1367 104.539 13.2588C104.342 13.3788 104.193 13.5574 104.114 13.7665C103.986 14.0949 103.924 14.4548 103.924 14.8462V17.7071L102.782 17.7058ZM106.669 16.0749L107.798 15.9307C107.861 16.2978 108.039 16.5789 108.329 16.7752C108.618 16.9703 109.023 17.0685 109.546 17.0685C110.07 17.0685 110.461 16.98 110.715 16.808C110.969 16.6335 111.096 16.4299 111.096 16.1985C111.096 15.9876 110.984 15.8252 110.759 15.7041C110.603 15.6217 110.212 15.5175 109.589 15.3914C108.753 15.2194 108.169 15.0715 107.847 14.9455C107.554 14.8418 107.298 14.6616 107.109 14.4257C106.945 14.2132 106.857 13.9568 106.858 13.6938C106.858 13.4491 106.927 13.2249 107.067 13.0177C107.202 12.8081 107.392 12.636 107.627 12.4991C107.805 12.3936 108.048 12.3028 108.352 12.2276C108.661 12.1537 108.991 12.1174 109.341 12.1174C109.87 12.1174 110.333 12.1804 110.734 12.3028C111.136 12.4251 111.43 12.5924 111.621 12.8032C111.812 13.0165 111.942 13.2964 112.014 13.649L110.897 13.775C110.875 13.6422 110.825 13.515 110.748 13.4015C110.672 13.2881 110.572 13.1908 110.454 13.1158C110.211 12.9583 109.867 12.8795 109.422 12.8795C108.897 12.8795 108.523 12.9498 108.299 13.0904C108.074 13.2309 107.961 13.3957 107.961 13.5835C107.961 13.7047 108.008 13.8114 108.102 13.9083C108.223 14.0241 108.374 14.1091 108.539 14.1555C108.654 14.1894 108.991 14.2682 109.55 14.3906C110.358 14.5663 110.922 14.708 111.241 14.8207C111.561 14.931 111.813 15.0946 111.996 15.3066C112.177 15.5199 112.268 15.7828 112.268 16.0979C112.268 16.4069 112.156 16.6965 111.934 16.9715C111.712 17.2442 111.391 17.4538 110.972 17.6028C110.554 17.7519 110.079 17.8258 109.551 17.8258C108.672 17.8258 108.006 17.678 107.546 17.3835C107.087 17.0915 106.796 16.6553 106.669 16.0749ZM113.635 11.2304V10.1653H114.779V11.2304H113.635ZM113.635 17.7058V12.2434H114.779V17.7058H113.635ZM120.893 17.7058V17.0164C120.466 17.5592 119.839 17.8294 119.009 17.8294C118.469 17.8294 117.976 17.7095 117.525 17.4696C117.081 17.2364 116.717 16.8873 116.476 16.4638C116.222 16.0066 116.095 15.4959 116.106 14.9795C116.106 14.4354 116.219 13.941 116.441 13.4951C116.656 13.0624 117.011 12.7052 117.453 12.4748C117.901 12.2385 118.402 12.1186 118.96 12.1186C119.364 12.1186 119.728 12.1889 120.042 12.327C120.362 12.4651 120.619 12.6469 120.819 12.8698V10.1641H121.956V17.7058H120.893ZM117.28 14.9795C117.28 15.681 117.463 16.2033 117.828 16.5499C118.19 16.8952 118.62 17.0697 119.117 17.0697C119.618 17.0697 120.04 16.9025 120.389 16.5729C120.738 16.2433 120.914 15.7368 120.914 15.057C120.914 14.3094 120.736 13.7617 120.381 13.4127C120.213 13.2422 120.009 13.1071 119.783 13.0165C119.556 12.9259 119.311 12.8817 119.065 12.8868C118.558 12.8868 118.132 13.0565 117.793 13.3909C117.452 13.7253 117.28 14.2561 117.28 14.9795ZM128.154 17.0321C127.729 17.3229 127.323 17.5289 126.932 17.6501C126.524 17.7719 126.099 17.8325 125.671 17.8294C124.929 17.8294 124.362 17.6828 123.962 17.3908C123.564 17.0976 123.365 16.7219 123.365 16.2675C123.365 15.9985 123.44 15.755 123.592 15.5332C123.742 15.3115 123.939 15.1346 124.182 15.0013C124.426 14.868 124.699 14.7662 125.005 14.6971C125.23 14.6499 125.566 14.6026 126.019 14.559C126.944 14.4693 127.623 14.3639 128.061 14.2391L128.066 13.998C128.066 13.6199 127.958 13.3533 127.741 13.2007C127.451 12.9898 127.017 12.8856 126.441 12.8856C125.904 12.8856 125.507 12.9607 125.246 13.1146C124.992 13.2673 124.804 13.5375 124.68 13.9253L123.563 13.8004C123.665 13.4151 123.833 13.1001 124.066 12.8638C124.298 12.6251 124.635 12.4409 125.075 12.3125C125.573 12.177 126.089 12.1121 126.606 12.1198C127.181 12.1198 127.648 12.1755 128.008 12.2846C128.368 12.3948 128.633 12.5318 128.803 12.699C128.973 12.8662 129.091 13.0746 129.16 13.3291C129.194 13.4878 129.215 13.7726 129.215 14.1834V15.4181C129.215 16.2796 129.24 16.8237 129.29 17.0503C129.338 17.2781 129.435 17.4986 129.578 17.7071H128.383C128.258 17.4997 128.18 17.2698 128.154 17.0321ZM128.058 14.9637C127.641 15.1031 127.019 15.2182 126.192 15.3151C125.72 15.3696 125.387 15.4302 125.195 15.4993C125.017 15.5561 124.859 15.6609 124.742 15.801C124.639 15.9263 124.583 16.0806 124.582 16.2397C124.582 16.4881 124.7 16.6928 124.929 16.8576C125.159 17.0212 125.496 17.1036 125.941 17.1036C126.381 17.1036 126.773 17.0261 127.115 16.8698C127.458 16.7134 127.713 16.499 127.873 16.2288C127.996 16.0203 128.058 15.7113 128.058 15.303V14.9637ZM135.362 17.7058V17.0164C134.934 17.5592 134.305 17.8294 133.475 17.8294C132.937 17.8294 132.442 17.7095 131.991 17.4696C131.547 17.2364 131.183 16.8873 130.942 16.4638C130.689 16.0062 130.562 15.4958 130.572 14.9795C130.572 14.4354 130.685 13.941 130.91 13.4951C131.123 13.0623 131.477 12.705 131.919 12.4748C132.367 12.2385 132.871 12.1186 133.426 12.1186C133.83 12.1186 134.194 12.1889 134.511 12.327C134.828 12.4651 135.088 12.6469 135.285 12.8698V10.1641H136.422V17.7058H135.362ZM131.746 14.9795C131.746 15.681 131.929 16.2033 132.294 16.5499C132.46 16.7153 132.66 16.8468 132.882 16.9362C133.104 17.0256 133.342 17.071 133.583 17.0697C134.084 17.0697 134.508 16.9025 134.855 16.5729C135.204 16.2433 135.379 15.7368 135.379 15.057C135.379 14.3094 135.202 13.7617 134.847 13.4127C134.679 13.2422 134.475 13.1071 134.248 13.0165C134.022 12.9259 133.777 12.8817 133.531 12.8868C133.024 12.8868 132.598 13.0565 132.259 13.3909C131.919 13.7253 131.746 14.2561 131.746 14.9795ZM142.835 15.9464L144.017 16.064C143.83 16.6238 143.485 17.0576 142.982 17.3666C142.477 17.6743 141.833 17.8282 141.05 17.8282C140.064 17.8282 139.281 17.5822 138.704 17.0903C138.127 16.5995 137.837 15.9089 137.837 15.0207C137.837 14.101 138.13 13.3873 138.715 12.8808C139.299 12.373 140.056 12.1186 140.988 12.1186C141.89 12.1186 142.627 12.3682 143.197 12.865C143.769 13.3618 144.054 14.0622 144.054 14.9625C144.054 15.0182 144.054 15.1018 144.049 15.2109H139.019C139.061 15.8119 139.271 16.2712 139.648 16.5898C140.026 16.9097 140.493 17.0697 141.058 17.0697C141.475 17.0697 141.832 16.98 142.13 16.8007C142.428 16.6226 142.662 16.339 142.835 15.9464ZM139.083 14.4487H142.848C142.798 13.9907 142.653 13.6441 142.418 13.4163C142.053 13.0601 141.581 12.8808 141.002 12.8808C140.477 12.8808 140.035 13.0225 139.678 13.3073C139.321 13.592 139.123 13.9737 139.083 14.4487ZM149.212 17.7058V10.1641H152.725C153.342 10.1641 153.815 10.1883 154.139 10.2356C154.598 10.2973 154.98 10.4149 155.29 10.5894C155.597 10.7614 155.848 11.005 156.037 11.3164C156.224 11.629 156.32 11.972 156.32 12.3452C156.32 12.9862 156.068 13.5302 155.562 13.9749C155.057 14.4172 154.149 14.6402 152.831 14.6402H150.443V17.7058H149.212ZM150.443 13.7508H152.852C153.646 13.7508 154.213 13.6308 154.548 13.3909C154.881 13.151 155.048 12.8129 155.048 12.3779C155.057 12.0829 154.952 11.795 154.754 11.5672C154.555 11.3414 154.281 11.1849 153.977 11.1225C153.768 11.0789 153.388 11.0559 152.829 11.0559H150.445V13.7508H150.443ZM157.73 17.7058V12.2434H158.759V13.071C159.019 12.6845 159.265 12.4288 159.486 12.3052C159.706 12.1816 159.95 12.1198 160.218 12.1198C160.605 12.1198 160.994 12.2204 161.392 12.4179L160.997 13.2782C160.74 13.1484 160.454 13.079 160.163 13.0758C159.924 13.0729 159.689 13.1365 159.489 13.2588C159.292 13.3788 159.142 13.5574 159.064 13.7665C158.936 14.0949 158.872 14.4548 158.872 14.8462V17.7071L157.73 17.7058ZM166.69 15.9464L167.872 16.064C167.685 16.6238 167.339 17.0576 166.837 17.3666C166.331 17.6743 165.688 17.8282 164.905 17.8282C163.919 17.8282 163.136 17.5822 162.559 17.0903C161.982 16.5995 161.691 15.9089 161.691 15.0207C161.691 14.101 161.984 13.3873 162.569 12.8808C163.154 12.373 163.911 12.1186 164.842 12.1186C165.744 12.1186 166.481 12.3682 167.052 12.865C167.623 13.3618 167.909 14.0622 167.909 14.9625L167.904 15.2109H162.873C162.916 15.8119 163.125 16.2712 163.503 16.5898C163.88 16.9097 164.347 17.0697 164.913 17.0697C165.33 17.0697 165.687 16.98 165.985 16.8007C166.281 16.6226 166.517 16.339 166.69 15.9464ZM162.936 14.4487H166.701C166.651 13.9907 166.507 13.6441 166.271 13.4163C165.907 13.0601 165.435 12.8808 164.855 12.8808C164.331 12.8808 163.888 13.0225 163.531 13.3073C163.174 13.592 162.976 13.9737 162.936 14.4487ZM168.85 16.0749L169.98 15.9307C170.042 16.2978 170.22 16.5789 170.509 16.7752C170.8 16.9703 171.204 17.0685 171.726 17.0685C172.251 17.0685 172.641 16.98 172.895 16.808C173.147 16.6335 173.278 16.4299 173.278 16.1985C173.278 15.9876 173.163 15.8252 172.937 15.7041C172.783 15.6217 172.392 15.5175 171.771 15.3914C170.934 15.2194 170.35 15.0715 170.027 14.9455C169.705 14.8207 169.458 14.6462 169.29 14.4257C169.123 14.2052 169.041 13.9604 169.041 13.6938C169.041 13.4491 169.109 13.2249 169.248 13.0177C169.382 12.8081 169.573 12.636 169.81 12.4991C170.035 12.3751 170.28 12.2836 170.534 12.2276C170.841 12.1537 171.171 12.1174 171.523 12.1174C172.05 12.1174 172.514 12.1804 172.914 12.3028C173.316 12.4264 173.612 12.5924 173.801 12.8032C173.993 13.0165 174.123 13.2964 174.194 13.649L173.079 13.775C173.058 13.6422 173.007 13.515 172.931 13.4015C172.855 13.2881 172.755 13.1908 172.637 13.1158C172.393 12.9583 172.047 12.8795 171.604 12.8795C171.08 12.8795 170.705 12.9498 170.48 13.0904C170.255 13.2309 170.142 13.3957 170.142 13.5835C170.142 13.7047 170.19 13.8114 170.282 13.9083C170.404 14.0241 170.556 14.1091 170.722 14.1555C170.837 14.1894 171.172 14.2682 171.731 14.3906C172.538 14.5663 173.102 14.708 173.42 14.8207C173.742 14.931 173.994 15.0946 174.177 15.3066C174.357 15.5199 174.45 15.7828 174.45 16.0979C174.45 16.4069 174.337 16.6965 174.114 16.9715C173.892 17.2442 173.569 17.4538 173.152 17.6028C172.697 17.7574 172.215 17.8329 171.731 17.8258C170.851 17.8258 170.184 17.678 169.725 17.3835C169.267 17.0915 168.976 16.6553 168.85 16.0749ZM176.864 17.7058H175.804V10.1641H176.947V12.8541C177.432 12.3646 178.046 12.1186 178.793 12.1186C179.21 12.1186 179.602 12.1876 179.972 12.3221C180.344 12.4579 180.646 12.6493 180.889 12.8929C181.127 13.1388 181.317 13.4333 181.45 13.7811C181.587 14.1276 181.654 14.4972 181.654 14.891C181.654 15.8277 181.367 16.5523 180.795 17.0624C180.244 17.5656 179.504 17.841 178.739 17.8282C177.945 17.8282 177.32 17.5592 176.865 17.02V17.7058H176.864ZM176.851 14.9334C176.851 15.589 176.961 16.0603 177.181 16.3523C177.54 16.8298 178.028 17.0685 178.643 17.0685C179.143 17.0685 179.576 16.8916 179.94 16.539C180.302 16.1876 180.485 15.6641 180.485 14.9673C180.485 14.2549 180.31 13.7278 179.961 13.3885C179.799 13.2253 179.603 13.0958 179.385 13.0081C179.168 12.9205 178.933 12.8767 178.697 12.8795C178.194 12.8795 177.764 13.0552 177.4 13.4066C177.035 13.758 176.851 14.2682 176.851 14.9334ZM183.05 11.2304V10.1653H184.195V11.2304H183.05ZM183.05 17.7058V12.2434H184.195V17.7058H183.05ZM188.429 16.877L188.594 17.6949C188.309 17.7462 188.02 17.7738 187.73 17.7773C187.315 17.7773 186.995 17.7252 186.765 17.6174C186.559 17.5324 186.39 17.3849 186.283 17.1981C186.191 17.0249 186.141 16.6601 186.141 16.1052V12.9619H185.304V12.2422H186.141V10.8887L187.281 10.3337V12.2422H188.429V12.9619H187.279V16.156C187.279 16.4214 187.3 16.5898 187.339 16.665C187.383 16.7438 187.452 16.8072 187.536 16.8455C187.626 16.8891 187.757 16.9122 187.927 16.9122C188.055 16.9134 188.222 16.9025 188.429 16.877ZM194.163 15.9464L195.343 16.064C195.157 16.6238 194.813 17.0576 194.31 17.3666C193.804 17.6743 193.161 17.8282 192.378 17.8282C191.392 17.8282 190.609 17.5822 190.032 17.0903C189.453 16.5995 189.165 15.9089 189.165 15.0207C189.165 14.101 189.458 13.3873 190.04 12.8808C190.627 12.373 191.382 12.1186 192.313 12.1186C193.215 12.1186 193.952 12.3682 194.525 12.865C195.098 13.3618 195.382 14.0622 195.382 14.9625C195.382 15.0182 195.38 15.1018 195.375 15.2109H190.347C190.387 15.8119 190.596 16.2712 190.974 16.5898C191.351 16.9097 191.821 17.0697 192.384 17.0697C192.803 17.0697 193.16 16.98 193.458 16.8007C193.754 16.6226 193.989 16.339 194.163 15.9464ZM190.411 14.4487H194.176C194.126 13.9907 193.981 13.6441 193.743 13.4163C193.379 13.0601 192.907 12.8808 192.33 12.8808C191.805 12.8808 191.363 13.0225 191.006 13.3073C190.645 13.592 190.451 13.9737 190.411 14.4487ZM196.766 17.7058V12.2434H197.796V13.071C198.058 12.6845 198.301 12.4288 198.523 12.3052C198.744 12.1816 198.99 12.1198 199.257 12.1198C199.642 12.1198 200.031 12.2204 200.431 12.4179L200.036 13.2782C199.778 13.1484 199.492 13.079 199.2 13.0758C198.961 13.0729 198.726 13.1365 198.525 13.2588C198.328 13.3788 198.179 13.5574 198.101 13.7665C197.973 14.0949 197.911 14.4548 197.911 14.8462V17.7071L196.766 17.7058ZM201.117 11.2304V10.1653H202.262V11.2304H201.117ZM201.117 17.7058V12.2434H202.262V17.7058H201.117ZM208.403 17.0321C207.978 17.3229 207.571 17.5289 207.181 17.6501C206.773 17.7717 206.347 17.8323 205.92 17.8294C205.178 17.8294 204.608 17.6828 204.21 17.3908C203.813 17.0988 203.613 16.7219 203.613 16.2675C203.613 15.9985 203.688 15.755 203.841 15.5332C203.988 15.3115 204.186 15.1346 204.428 15.0013C204.675 14.868 204.947 14.7662 205.253 14.6971C205.476 14.6499 205.815 14.6026 206.267 14.559C207.192 14.4693 207.872 14.3639 208.309 14.2391L208.314 13.998C208.314 13.6199 208.207 13.3533 207.989 13.2007C207.699 12.9898 207.263 12.8856 206.69 12.8856C206.15 12.8856 205.756 12.9607 205.495 13.1146C205.24 13.2673 205.05 13.5375 204.928 13.9253L203.811 13.8004C203.914 13.4151 204.081 13.1001 204.314 12.8638C204.544 12.6251 204.883 12.4409 205.323 12.3125C205.821 12.177 206.337 12.1121 206.855 12.1198C207.429 12.1198 207.896 12.1755 208.257 12.2846C208.616 12.3948 208.881 12.5318 209.051 12.699C209.221 12.8662 209.339 13.0746 209.406 13.3291C209.443 13.4878 209.463 13.7726 209.463 14.1834V15.4181C209.463 16.2796 209.486 16.8237 209.536 17.0503C209.586 17.2781 209.683 17.4986 209.826 17.7071H208.632C208.507 17.4995 208.429 17.2697 208.403 17.0321ZM208.308 14.9637C207.891 15.1031 207.269 15.2182 206.441 15.3151C205.969 15.3696 205.637 15.4302 205.445 15.4993C205.266 15.5555 205.108 15.6604 204.992 15.801C204.889 15.9263 204.832 16.0806 204.832 16.2397C204.832 16.4881 204.95 16.6928 205.179 16.8576C205.409 17.0212 205.746 17.1036 206.191 17.1036C206.631 17.1036 207.022 17.0261 207.365 16.8698C207.708 16.7134 207.963 16.499 208.122 16.2288C208.245 16.0203 208.308 15.7113 208.308 15.303V14.9637ZM211.236 17.7058V12.2434H212.263V13.0201C212.761 12.4203 213.475 12.1198 214.41 12.1198C214.817 12.1198 215.189 12.1792 215.529 12.2967C215.875 12.4155 216.127 12.5706 216.297 12.7632C216.467 12.9547 216.585 13.1825 216.654 13.4466C216.694 13.6187 216.717 13.9192 216.717 14.3469V17.7058H215.572V14.3833C215.572 14.0064 215.529 13.7241 215.439 13.5363C215.339 13.3413 215.173 13.184 214.967 13.0904C214.719 12.9736 214.446 12.9157 214.17 12.922C213.68 12.922 213.263 13.048 212.908 13.2976C212.554 13.5484 212.379 14.0234 212.379 14.7238V17.7071L211.236 17.7058ZM222.87 17.0321C222.445 17.3229 222.038 17.5289 221.648 17.6501C221.24 17.7719 220.815 17.8325 220.387 17.8294C219.645 17.8294 219.078 17.6828 218.678 17.3908C218.491 17.2625 218.339 17.0935 218.235 16.898C218.132 16.7025 218.08 16.4862 218.083 16.2675C218.083 15.9985 218.156 15.755 218.308 15.5332C218.458 15.3115 218.655 15.1346 218.898 15.0013C219.142 14.868 219.415 14.7662 219.72 14.6971C219.945 14.6499 220.282 14.6026 220.735 14.559C221.66 14.4693 222.339 14.3639 222.776 14.2391C222.779 14.1131 222.784 14.0319 222.784 13.998C222.784 13.6199 222.674 13.3533 222.457 13.2007C222.166 12.9898 221.733 12.8856 221.157 12.8856C220.617 12.8856 220.223 12.9607 219.965 13.1146C219.707 13.2673 219.519 13.5375 219.395 13.9253L218.281 13.8004C218.36 13.4527 218.532 13.1302 218.781 12.8638C219.014 12.6251 219.351 12.4409 219.791 12.3125C220.288 12.177 220.804 12.1121 221.322 12.1198C221.899 12.1198 222.363 12.1755 222.724 12.2846C223.083 12.3948 223.348 12.5318 223.518 12.699C223.689 12.8662 223.806 13.0746 223.875 13.3291C223.912 13.4878 223.93 13.7726 223.93 14.1834V15.4181C223.93 16.2796 223.956 16.8237 224.006 17.0503C224.053 17.2781 224.15 17.4986 224.294 17.7071H223.099C222.974 17.4997 222.896 17.2698 222.87 17.0321ZM222.774 14.9637C222.357 15.1031 221.735 15.2182 220.907 15.3151C220.438 15.3696 220.103 15.4302 219.911 15.4993C219.732 15.5561 219.575 15.6609 219.458 15.801C219.355 15.9263 219.298 16.0806 219.298 16.2397C219.298 16.4881 219.416 16.6928 219.645 16.8576C219.875 17.0212 220.212 17.1036 220.657 17.1036C221.097 17.1036 221.488 17.0261 221.831 16.8698C222.174 16.7134 222.428 16.499 222.588 16.2288C222.714 16.0203 222.774 15.7113 222.774 15.303V14.9637Z" fill="#F7F7F7"/>
</svg>