<?xml version="1.0" encoding="utf-8"?>
<!-- Generator: Adobe Illustrator 27.9.0, SVG Export Plug-In . SVG Version: 6.00 Build 0)  -->
<svg version="1.1" id="Camada_2" xmlns="http://www.w3.org/2000/svg" xmlns:xlink="http://www.w3.org/1999/xlink" x="0px" y="0px"
	 viewBox="0 0 653.9 219.27" enable-background="new 0 0 653.9 219.27" xml:space="preserve">
<g>
	<g>
		<path fill="#FFFFFF" d="M110.33,147.16c0.19,0.39,0.77,0.78,1.25,0.78l0,0h0.77l0,0c0.47,0,1.34,0,1.82,0l0,0h0.77l0,0
			c0.48,0,1.06-0.39,1.25-0.78l0,0l13.71-34.92l0,0c0.87-1.81,1.54-1.72,1.54,0.29l0,0v21.39l0,0c0,2.11-1.15,3.75-2.49,3.75
			c-1.35,0-2.4,1.63-2.4,3.73l0,0v8.83h23.3v-6.33l0.1-2.49l0,0c0-2.11-1.15-3.73-2.49-3.73c-1.15,0-2.01-1.06-2.4-2.5l0,0V99.59
			c0-2.01,0.96-3.65,2.4-3.65c1.34,0,2.49-1.72,2.49-3.74l0,0v-9.78h-21.2l-15.83,37.98L97.1,82.42H75.71v9.78l0,0
			c0,2.02,1.05,3.74,2.4,3.74c1.44,0,2.49,1.63,2.49,3.65l0,0v34.33l0,0c0,2.11-1.05,3.75-2.49,3.75c-1.35,0-2.4,1.63-2.4,3.73l0,0
			l-0.1,8.83h23.41v-8.83l0,0c0-2.11-1.06-3.73-2.4-3.73c-1.34,0-2.49-1.63-2.49-3.75l0,0v-21.39l0,0c0-2.01,0.67-2.11,1.54-0.29
			l0,0L110.33,147.16L110.33,147.16z"/>
		<path fill="#FFFFFF" d="M113.12,39.16c42.2,0,76.64,34.43,76.64,76.63c0,42.21-34.44,76.63-76.64,76.63
			c-42.2,0-76.63-34.43-76.63-76.63C36.48,73.59,70.91,39.16,113.12,39.16L113.12,39.16z M113.12,54.42
			c-33.76,0-61.38,27.53-61.38,61.38c0,33.76,27.62,61.38,61.38,61.38c33.86,0,61.39-27.62,61.39-61.38
			C174.5,81.94,146.98,54.42,113.12,54.42z"/>
	</g>
	<g>
		<path fill="#FFFFFF" d="M261.3,90.91h14.96v49.76h-9.69v-33.65c0-0.97,0.01-2.32,0.03-4.07c0.02-1.74,0.03-3.09,0.03-4.03
			l-9.43,41.76h-10.1l-9.36-41.76c0,0.95,0.01,2.29,0.03,4.03c0.02,1.74,0.03,3.1,0.03,4.07v33.65h-9.69V90.91h15.13l9.06,39.12
			L261.3,90.91z"/>
		<path fill="#FFFFFF" d="M299.68,118.28c1.79-0.23,3.07-0.51,3.84-0.84c1.38-0.59,2.07-1.5,2.07-2.73c0-1.51-0.53-2.55-1.59-3.12
			c-1.06-0.57-2.62-0.86-4.67-0.86c-2.3,0-3.94,0.56-4.89,1.69c-0.68,0.83-1.14,1.96-1.37,3.38h-9.28c0.2-3.22,1.11-5.86,2.71-7.93
			c2.55-3.24,6.94-4.86,13.16-4.86c4.05,0,7.64,0.8,10.78,2.4c3.14,1.6,4.71,4.61,4.71,9.05v16.88c0,1.17,0.02,2.59,0.07,4.25
			c0.07,1.26,0.26,2.12,0.57,2.57c0.32,0.45,0.79,0.82,1.42,1.11v1.42h-10.46c-0.29-0.74-0.5-1.44-0.61-2.09s-0.2-1.4-0.27-2.23
			c-1.34,1.44-2.87,2.67-4.62,3.68c-2.08,1.19-4.44,1.79-7.06,1.79c-3.35,0-6.12-0.95-8.3-2.85c-2.19-1.9-3.28-4.6-3.28-8.08
			c0-4.52,1.76-7.8,5.27-9.82c1.93-1.1,4.76-1.89,8.5-2.36L299.68,118.28z M305.56,122.77c-0.62,0.38-1.24,0.69-1.87,0.93
			c-0.63,0.24-1.49,0.46-2.58,0.66l-2.19,0.41c-2.05,0.36-3.53,0.8-4.42,1.32c-1.52,0.88-2.27,2.24-2.27,4.08
			c0,1.64,0.46,2.83,1.39,3.56c0.93,0.73,2.05,1.1,3.38,1.1c2.1,0,4.04-0.61,5.81-1.82c1.77-1.22,2.69-3.43,2.76-6.65V122.77z"/>
		<path fill="#FFFFFF" d="M345.56,117.07c-0.18-1.37-0.64-2.61-1.39-3.71c-1.08-1.49-2.76-2.23-5.04-2.23
			c-3.25,0-5.47,1.61-6.67,4.83c-0.63,1.71-0.95,3.97-0.95,6.8c0,2.69,0.32,4.86,0.95,6.5c1.15,3.06,3.32,4.59,6.5,4.59
			c2.26,0,3.86-0.61,4.8-1.82c0.95-1.22,1.52-2.79,1.73-4.73h9.82c-0.23,2.93-1.28,5.69-3.18,8.3c-3.02,4.21-7.49,6.31-13.41,6.31
			c-5.93,0-10.28-1.76-13.08-5.27c-2.79-3.51-4.19-8.06-4.19-13.66c0-6.31,1.54-11.22,4.63-14.73c3.09-3.51,7.34-5.27,12.77-5.27
			c4.62,0,8.4,1.04,11.34,3.11c2.94,2.07,4.68,5.73,5.22,10.97H345.56z"/>
		<path fill="#FFFFFF" d="M361.9,91.08h9.45v26.84l12.13-13.88h11.96l-13.19,13.71l13.7,22.92h-11.71l-8.92-15.72l-3.98,4.14v11.58
			h-9.45V91.08z"/>
		<path fill="#FFFFFF" d="M424.42,104.62c2.57,1.15,4.69,2.96,6.36,5.44c1.51,2.19,2.48,4.72,2.93,7.61
			c0.26,1.69,0.36,4.12,0.32,7.3h-26.8c0.15,3.69,1.43,6.28,3.85,7.76c1.47,0.92,3.24,1.38,5.3,1.38c2.19,0,3.97-0.56,5.34-1.69
			c0.75-0.61,1.41-1.45,1.98-2.53h9.82c-0.26,2.18-1.45,4.4-3.57,6.65c-3.3,3.58-7.91,5.37-13.84,5.37c-4.9,0-9.22-1.51-12.96-4.53
			s-5.61-7.93-5.61-14.73c0-6.37,1.69-11.26,5.07-14.66c3.38-3.4,7.77-5.1,13.16-5.1C418.97,102.89,421.86,103.47,424.42,104.62z
			 M410.03,112.93c-1.36,1.4-2.21,3.3-2.56,5.69h16.57c-0.17-2.55-1.03-4.49-2.56-5.81c-1.53-1.32-3.44-1.98-5.71-1.98
			C413.31,110.82,411.39,111.52,410.03,112.93z"/>
		<path fill="#FFFFFF" d="M468.57,105.98c2.41,1.99,3.61,5.29,3.61,9.91v24.78h-9.86v-22.38c0-1.94-0.26-3.42-0.77-4.46
			c-0.94-1.89-2.73-2.84-5.36-2.84c-3.24,0-5.46,1.38-6.67,4.15c-0.62,1.46-0.94,3.33-0.94,5.6v19.92h-9.62v-36.73h9.32v5.37
			c1.23-1.89,2.4-3.25,3.5-4.08c1.97-1.49,4.47-2.23,7.5-2.23C463.06,102.99,466.16,103.99,468.57,105.98z"/>
		<path fill="#FFFFFF" d="M479.03,111.7v-7.83h29.1v8l-18.05,20.9h18.7v7.9h-31.02v-7.49l18.24-21.47H479.03z"/>
		<path fill="#FFFFFF" d="M525.58,99.48h-9.76V90.6h9.76V99.48z M515.83,103.87h9.76v36.79h-9.76V103.87z"/>
		<path fill="#FFFFFF" d="M558.88,104.62c2.57,1.15,4.69,2.96,6.36,5.44c1.51,2.19,2.48,4.72,2.93,7.61
			c0.26,1.69,0.36,4.12,0.32,7.3h-26.8c0.15,3.69,1.43,6.28,3.85,7.76c1.47,0.92,3.24,1.38,5.3,1.38c2.19,0,3.97-0.56,5.34-1.69
			c0.75-0.61,1.41-1.45,1.98-2.53h9.82c-0.26,2.18-1.45,4.4-3.57,6.65c-3.3,3.58-7.91,5.37-13.84,5.37c-4.9,0-9.22-1.51-12.96-4.53
			s-5.61-7.93-5.61-14.73c0-6.37,1.69-11.26,5.07-14.66c3.38-3.4,7.77-5.1,13.16-5.1C553.42,102.89,556.31,103.47,558.88,104.62z
			 M544.48,112.93c-1.36,1.4-2.21,3.3-2.56,5.69h16.57c-0.17-2.55-1.03-4.49-2.56-5.81c-1.53-1.32-3.44-1.98-5.71-1.98
			C547.76,110.82,545.84,111.52,544.48,112.93z"/>
	</g>
	<g>
		<path fill="#FFFFFF" d="M228.12,54.66h4.07v11.76c0,1.32,0.16,2.28,0.47,2.88c0.48,1.07,1.54,1.61,3.16,1.61
			c1.61,0,2.66-0.54,3.15-1.61c0.31-0.61,0.47-1.57,0.47-2.88V54.66h4.07v11.77c0,2.04-0.32,3.62-0.95,4.76
			c-1.18,2.08-3.42,3.12-6.73,3.12s-5.56-1.04-6.75-3.12c-0.63-1.13-0.95-2.72-0.95-4.76V54.66z"/>
		<path fill="#FFFFFF" d="M258.46,60.46c0.93,0.77,1.39,2.04,1.39,3.81v9.54h-3.79V65.2c0-0.75-0.1-1.32-0.3-1.72
			c-0.36-0.73-1.05-1.09-2.06-1.09c-1.25,0-2.1,0.53-2.57,1.6c-0.24,0.56-0.36,1.28-0.36,2.16v7.67h-3.7V59.67h3.59v2.07
			c0.47-0.73,0.92-1.25,1.35-1.57c0.76-0.57,1.72-0.86,2.89-0.86C256.34,59.31,257.54,59.69,258.46,60.46z"/>
		<path fill="#FFFFFF" d="M267.11,57.96h-3.76v-3.42h3.76V57.96z M263.35,59.65h3.76v14.16h-3.76V59.65z"/>
		<path fill="#FFFFFF" d="M279.42,59.65h3.98l-5.11,14.16h-3.9l-5.08-14.16h4.16l2.95,10.45L279.42,59.65z"/>
		<path fill="#FFFFFF" d="M294.72,59.94c0.99,0.44,1.8,1.14,2.45,2.1c0.58,0.84,0.96,1.82,1.13,2.93c0.1,0.65,0.14,1.59,0.12,2.81
			H288.1c0.06,1.42,0.55,2.42,1.48,2.99c0.57,0.36,1.25,0.53,2.04,0.53c0.84,0,1.53-0.22,2.06-0.65c0.29-0.23,0.54-0.56,0.76-0.97
			h3.78c-0.1,0.84-0.56,1.69-1.37,2.56c-1.27,1.38-3.05,2.07-5.33,2.07c-1.88,0-3.55-0.58-4.99-1.74c-1.44-1.16-2.16-3.05-2.16-5.67
			c0-2.45,0.65-4.34,1.95-5.64c1.3-1.31,2.99-1.96,5.07-1.96C292.62,59.27,293.73,59.49,294.72,59.94z M289.18,63.13
			c-0.52,0.54-0.85,1.27-0.99,2.19h6.38c-0.07-0.98-0.4-1.73-0.99-2.24c-0.59-0.51-1.32-0.76-2.2-0.76
			C290.44,62.33,289.71,62.6,289.18,63.13z"/>
		<path fill="#FFFFFF" d="M308.16,59.32c0.05,0,0.15,0.01,0.32,0.02v3.79c-0.23-0.03-0.44-0.04-0.62-0.05
			c-0.18-0.01-0.33-0.01-0.44-0.01c-1.49,0-2.49,0.49-3,1.46c-0.29,0.55-0.43,1.39-0.43,2.52v6.77h-3.73V59.65h3.53v2.47
			c0.57-0.94,1.07-1.59,1.49-1.94c0.69-0.58,1.59-0.87,2.7-0.87C308.06,59.31,308.11,59.31,308.16,59.32z"/>
		<path fill="#FFFFFF" d="M313.52,69.29c0.08,0.66,0.25,1.13,0.51,1.4c0.46,0.49,1.31,0.74,2.56,0.74c0.73,0,1.31-0.11,1.74-0.32
			c0.43-0.22,0.65-0.54,0.65-0.97c0-0.42-0.17-0.73-0.52-0.95c-0.35-0.22-1.64-0.59-3.87-1.12c-1.61-0.4-2.74-0.9-3.4-1.49
			c-0.66-0.59-0.99-1.44-0.99-2.55c0-1.31,0.51-2.43,1.54-3.37c1.03-0.94,2.48-1.41,4.34-1.41c1.77,0,3.21,0.35,4.33,1.06
			c1.12,0.71,1.76,1.93,1.92,3.66h-3.7c-0.05-0.48-0.19-0.85-0.4-1.13c-0.41-0.5-1.1-0.75-2.08-0.75c-0.81,0-1.38,0.13-1.73,0.38
			c-0.34,0.25-0.51,0.55-0.51,0.88c0,0.42,0.18,0.73,0.55,0.92c0.36,0.2,1.65,0.54,3.87,1.03c1.48,0.35,2.58,0.87,3.32,1.57
			c0.73,0.71,1.09,1.6,1.09,2.66c0,1.4-0.52,2.55-1.57,3.44c-1.05,0.89-2.66,1.33-4.85,1.33c-2.23,0-3.88-0.47-4.94-1.41
			c-1.06-0.94-1.6-2.14-1.6-3.59H313.52z"/>
		<path fill="#FFFFFF" d="M329.26,57.96h-3.76v-3.42h3.76V57.96z M325.5,59.65h3.76v14.16h-3.76V59.65z"/>
		<path fill="#FFFFFF" d="M340.36,59.88c0.67,0.38,1.21,0.9,1.62,1.57v-6.76h3.76v19.13h-3.6v-1.96c-0.53,0.84-1.13,1.45-1.81,1.83
			c-0.68,0.38-1.52,0.57-2.52,0.57c-1.65,0-3.05-0.67-4.18-2.01c-1.13-1.34-1.7-3.06-1.7-5.15c0-2.42,0.56-4.32,1.67-5.7
			c1.11-1.39,2.6-2.08,4.46-2.08C338.93,59.31,339.69,59.5,340.36,59.88z M341.27,69.97c0.55-0.78,0.82-1.79,0.82-3.03
			c0-1.73-0.44-2.97-1.31-3.72c-0.54-0.45-1.16-0.68-1.87-0.68c-1.08,0-1.88,0.41-2.38,1.23c-0.51,0.82-0.76,1.83-0.76,3.05
			c0,1.31,0.26,2.35,0.77,3.14c0.52,0.78,1.3,1.18,2.35,1.18C339.92,71.14,340.72,70.75,341.27,69.97z"/>
		<path fill="#FFFFFF" d="M354.71,65.2c0.69-0.09,1.18-0.19,1.48-0.32c0.53-0.23,0.8-0.58,0.8-1.05c0-0.58-0.2-0.98-0.61-1.2
			c-0.41-0.22-1.01-0.33-1.8-0.33c-0.89,0-1.51,0.22-1.88,0.65c-0.26,0.32-0.44,0.75-0.53,1.3h-3.57c0.08-1.24,0.43-2.26,1.04-3.05
			c0.98-1.25,2.67-1.87,5.06-1.87c1.56,0,2.94,0.31,4.15,0.92c1.21,0.62,1.81,1.78,1.81,3.48v6.5c0,0.45,0.01,1,0.03,1.64
			c0.03,0.49,0.1,0.81,0.22,0.99c0.12,0.17,0.3,0.32,0.55,0.43v0.55h-4.03c-0.11-0.29-0.19-0.55-0.23-0.81
			c-0.04-0.25-0.08-0.54-0.1-0.86c-0.51,0.55-1.11,1.03-1.78,1.42c-0.8,0.46-1.71,0.69-2.72,0.69c-1.29,0-2.35-0.37-3.2-1.1
			c-0.84-0.73-1.26-1.77-1.26-3.11c0-1.74,0.68-3,2.03-3.78c0.74-0.42,1.83-0.73,3.27-0.91L354.71,65.2z M356.98,66.93
			c-0.24,0.15-0.48,0.27-0.72,0.36s-0.57,0.18-0.99,0.25l-0.84,0.16c-0.79,0.14-1.36,0.31-1.7,0.51c-0.58,0.34-0.87,0.86-0.87,1.57
			c0,0.63,0.18,1.09,0.53,1.37c0.36,0.28,0.79,0.42,1.3,0.42c0.81,0,1.55-0.23,2.24-0.7c0.68-0.47,1.04-1.32,1.06-2.56V66.93z"/>
		<path fill="#FFFFFF" d="M371.41,59.88c0.67,0.38,1.21,0.9,1.62,1.57v-6.76h3.76v19.13h-3.6v-1.96c-0.53,0.84-1.13,1.45-1.81,1.83
			s-1.52,0.57-2.52,0.57c-1.65,0-3.05-0.67-4.18-2.01c-1.13-1.34-1.7-3.06-1.7-5.15c0-2.42,0.56-4.32,1.67-5.7
			c1.11-1.39,2.6-2.08,4.46-2.08C369.98,59.31,370.75,59.5,371.41,59.88z M372.32,69.97c0.55-0.78,0.82-1.79,0.82-3.03
			c0-1.73-0.44-2.97-1.31-3.72c-0.54-0.45-1.16-0.68-1.87-0.68c-1.08,0-1.88,0.41-2.38,1.23c-0.51,0.82-0.76,1.83-0.76,3.05
			c0,1.31,0.26,2.35,0.77,3.14c0.52,0.78,1.3,1.18,2.35,1.18S371.78,70.75,372.32,69.97z"/>
		<path fill="#FFFFFF" d="M389.39,59.94c0.99,0.44,1.8,1.14,2.45,2.1c0.58,0.84,0.96,1.82,1.13,2.93c0.1,0.65,0.14,1.59,0.12,2.81
			h-10.32c0.06,1.42,0.55,2.42,1.48,2.99c0.57,0.36,1.25,0.53,2.04,0.53c0.84,0,1.53-0.22,2.06-0.65c0.29-0.23,0.54-0.56,0.76-0.97
			h3.78c-0.1,0.84-0.56,1.69-1.37,2.56c-1.27,1.38-3.04,2.07-5.33,2.07c-1.89,0-3.55-0.58-4.99-1.74s-2.16-3.05-2.16-5.67
			c0-2.45,0.65-4.34,1.95-5.64c1.3-1.31,2.99-1.96,5.07-1.96C387.29,59.27,388.4,59.49,389.39,59.94z M383.85,63.13
			c-0.52,0.54-0.85,1.27-0.99,2.19h6.38c-0.07-0.98-0.4-1.73-0.99-2.24c-0.59-0.51-1.32-0.76-2.2-0.76
			C385.11,62.33,384.37,62.6,383.85,63.13z"/>
		<path fill="#FFFFFF" d="M415.51,65.52c-1.12,0.94-2.72,1.4-4.8,1.4h-3.99v6.89h-3.98V54.66h8.22c1.9,0,3.41,0.49,4.54,1.48
			c1.13,0.99,1.69,2.52,1.69,4.59C417.19,62.99,416.63,64.59,415.51,65.52z M412.46,58.62c-0.51-0.42-1.22-0.64-2.13-0.64h-3.61
			v5.64h3.61c0.91,0,1.62-0.23,2.13-0.69c0.51-0.46,0.76-1.19,0.76-2.18C413.22,59.76,412.96,59.05,412.46,58.62z"/>
		<path fill="#FFFFFF" d="M427.97,59.32c0.05,0,0.15,0.01,0.32,0.02v3.79c-0.23-0.03-0.44-0.04-0.62-0.05
			c-0.18-0.01-0.33-0.01-0.44-0.01c-1.49,0-2.49,0.49-3,1.46c-0.29,0.55-0.43,1.39-0.43,2.52v6.77h-3.73V59.65h3.53v2.47
			c0.57-0.94,1.07-1.59,1.49-1.94c0.69-0.58,1.59-0.87,2.7-0.87C427.87,59.31,427.93,59.31,427.97,59.32z"/>
		<path fill="#FFFFFF" d="M439.69,59.94c0.99,0.44,1.8,1.14,2.45,2.1c0.58,0.84,0.96,1.82,1.13,2.93c0.1,0.65,0.14,1.59,0.12,2.81
			h-10.32c0.06,1.42,0.55,2.42,1.48,2.99c0.57,0.36,1.25,0.53,2.04,0.53c0.84,0,1.53-0.22,2.06-0.65c0.29-0.23,0.54-0.56,0.76-0.97
			h3.78c-0.1,0.84-0.56,1.69-1.37,2.56c-1.27,1.38-3.04,2.07-5.33,2.07c-1.89,0-3.55-0.58-4.99-1.74c-1.44-1.16-2.16-3.05-2.16-5.67
			c0-2.45,0.65-4.34,1.95-5.64c1.3-1.31,2.99-1.96,5.07-1.96C437.59,59.27,438.7,59.49,439.69,59.94z M434.15,63.13
			c-0.52,0.54-0.85,1.27-0.99,2.19h6.38c-0.07-0.98-0.4-1.73-0.99-2.24c-0.59-0.51-1.32-0.76-2.2-0.76
			C435.41,62.33,434.68,62.6,434.15,63.13z"/>
		<path fill="#FFFFFF" d="M448.14,69.29c0.08,0.66,0.25,1.13,0.51,1.4c0.46,0.49,1.31,0.74,2.56,0.74c0.73,0,1.31-0.11,1.74-0.32
			c0.43-0.22,0.65-0.54,0.65-0.97c0-0.42-0.17-0.73-0.52-0.95c-0.35-0.22-1.64-0.59-3.87-1.12c-1.61-0.4-2.74-0.9-3.4-1.49
			c-0.66-0.59-0.99-1.44-0.99-2.55c0-1.31,0.51-2.43,1.54-3.37c1.03-0.94,2.48-1.41,4.34-1.41c1.77,0,3.21,0.35,4.33,1.06
			c1.12,0.71,1.76,1.93,1.92,3.66h-3.7c-0.05-0.48-0.19-0.85-0.4-1.13c-0.41-0.5-1.1-0.75-2.08-0.75c-0.81,0-1.38,0.13-1.73,0.38
			c-0.34,0.25-0.51,0.55-0.51,0.88c0,0.42,0.18,0.73,0.55,0.92c0.36,0.2,1.65,0.54,3.87,1.03c1.48,0.35,2.58,0.87,3.32,1.57
			c0.73,0.71,1.09,1.6,1.09,2.66c0,1.4-0.52,2.55-1.57,3.44c-1.05,0.89-2.66,1.33-4.85,1.33c-2.23,0-3.88-0.47-4.94-1.41
			c-1.06-0.94-1.6-2.14-1.6-3.59H448.14z"/>
		<path fill="#FFFFFF" d="M472.16,61.35c1.06,1.34,1.59,3.08,1.59,5.2c0,2.2-0.52,4.02-1.57,5.47c-1.05,1.45-2.5,2.17-4.38,2.17
			c-1.18,0-2.12-0.23-2.83-0.7c-0.43-0.28-0.89-0.76-1.38-1.46v1.78h-3.65V54.68h3.7v6.81c0.47-0.66,0.99-1.16,1.56-1.51
			c0.67-0.43,1.53-0.65,2.56-0.65C469.63,59.34,471.1,60.01,472.16,61.35z M469.06,69.98c0.53-0.77,0.8-1.78,0.8-3.04
			c0-1-0.13-1.84-0.39-2.49c-0.5-1.25-1.41-1.87-2.75-1.87c-1.35,0-2.28,0.61-2.79,1.83c-0.26,0.65-0.39,1.49-0.39,2.52
			c0,1.21,0.27,2.22,0.81,3.01c0.54,0.8,1.37,1.2,2.48,1.2C467.78,71.14,468.53,70.75,469.06,69.98z"/>
		<path fill="#FFFFFF" d="M480.13,57.96h-3.76v-3.42h3.76V57.96z M476.37,59.65h3.76v14.16h-3.76V59.65z"/>
		<path fill="#FFFFFF" d="M482.26,62.42v-2.64h1.98v-3.95h3.66v3.95h2.3v2.64h-2.3v7.48c0,0.58,0.07,0.94,0.22,1.09
			c0.15,0.14,0.6,0.21,1.35,0.21c0.11,0,0.23,0,0.36-0.01c0.13,0,0.25-0.01,0.37-0.02v2.77l-1.75,0.06
			c-1.75,0.06-2.95-0.24-3.59-0.91c-0.42-0.42-0.62-1.08-0.62-1.96v-8.72H482.26z"/>
		<path fill="#FFFFFF" d="M501.81,59.94c0.99,0.44,1.8,1.14,2.45,2.1c0.58,0.84,0.96,1.82,1.13,2.93c0.1,0.65,0.14,1.59,0.12,2.81
			h-10.32c0.06,1.42,0.55,2.42,1.48,2.99c0.57,0.36,1.25,0.53,2.04,0.53c0.84,0,1.53-0.22,2.06-0.65c0.29-0.23,0.54-0.56,0.76-0.97
			h3.78c-0.1,0.84-0.56,1.69-1.37,2.56c-1.27,1.38-3.04,2.07-5.33,2.07c-1.89,0-3.55-0.58-4.99-1.74s-2.16-3.05-2.16-5.67
			c0-2.45,0.65-4.34,1.95-5.64c1.3-1.31,2.99-1.96,5.07-1.96C499.71,59.27,500.82,59.49,501.81,59.94z M496.27,63.13
			c-0.52,0.54-0.85,1.27-0.99,2.19h6.38c-0.07-0.98-0.4-1.73-0.99-2.24c-0.59-0.51-1.32-0.76-2.2-0.76
			C497.53,62.33,496.79,62.6,496.27,63.13z"/>
		<path fill="#FFFFFF" d="M515.25,59.32c0.05,0,0.15,0.01,0.32,0.02v3.79c-0.23-0.03-0.44-0.04-0.62-0.05
			c-0.18-0.01-0.33-0.01-0.44-0.01c-1.49,0-2.49,0.49-3,1.46c-0.29,0.55-0.43,1.39-0.43,2.52v6.77h-3.73V59.65h3.53v2.47
			c0.57-0.94,1.07-1.59,1.49-1.94c0.69-0.58,1.59-0.87,2.7-0.87C515.14,59.31,515.2,59.31,515.25,59.32z"/>
		<path fill="#FFFFFF" d="M521.54,57.96h-3.76v-3.42h3.76V57.96z M517.79,59.65h3.76v14.16h-3.76V59.65z"/>
		<path fill="#FFFFFF" d="M530.74,65.2c0.69-0.09,1.18-0.19,1.48-0.32c0.53-0.23,0.8-0.58,0.8-1.05c0-0.58-0.2-0.98-0.61-1.2
			c-0.41-0.22-1.01-0.33-1.8-0.33c-0.89,0-1.51,0.22-1.88,0.65c-0.26,0.32-0.44,0.75-0.53,1.3h-3.57c0.08-1.24,0.43-2.26,1.04-3.05
			c0.98-1.25,2.67-1.87,5.06-1.87c1.56,0,2.94,0.31,4.15,0.92c1.21,0.62,1.81,1.78,1.81,3.48v6.5c0,0.45,0.01,1,0.03,1.64
			c0.03,0.49,0.1,0.81,0.22,0.99c0.12,0.17,0.3,0.32,0.55,0.43v0.55h-4.03c-0.11-0.29-0.19-0.55-0.23-0.81
			c-0.04-0.25-0.08-0.54-0.1-0.86c-0.51,0.55-1.11,1.03-1.78,1.42c-0.8,0.46-1.71,0.69-2.72,0.69c-1.29,0-2.35-0.37-3.2-1.1
			s-1.26-1.77-1.26-3.11c0-1.74,0.68-3,2.03-3.78c0.74-0.42,1.83-0.73,3.27-0.91L530.74,65.2z M533,66.93
			c-0.24,0.15-0.48,0.27-0.72,0.36c-0.24,0.09-0.57,0.18-0.99,0.25l-0.84,0.16c-0.79,0.14-1.36,0.31-1.7,0.51
			c-0.58,0.34-0.88,0.86-0.88,1.57c0,0.63,0.18,1.09,0.53,1.37c0.36,0.28,0.79,0.42,1.3,0.42c0.81,0,1.55-0.23,2.24-0.7
			c0.68-0.47,1.04-1.32,1.06-2.56V66.93z"/>
		<path fill="#FFFFFF" d="M551.35,60.46c0.93,0.77,1.39,2.04,1.39,3.81v9.54h-3.79V65.2c0-0.75-0.1-1.32-0.3-1.72
			c-0.36-0.73-1.05-1.09-2.06-1.09c-1.25,0-2.1,0.53-2.57,1.6c-0.24,0.56-0.36,1.28-0.36,2.16v7.67h-3.7V59.67h3.59v2.07
			c0.47-0.73,0.92-1.25,1.35-1.57c0.76-0.57,1.72-0.86,2.89-0.86C549.23,59.31,550.42,59.69,551.35,60.46z"/>
		<path fill="#FFFFFF" d="M561.8,65.2c0.69-0.09,1.18-0.19,1.48-0.32c0.53-0.23,0.8-0.58,0.8-1.05c0-0.58-0.2-0.98-0.61-1.2
			c-0.41-0.22-1.01-0.33-1.8-0.33c-0.89,0-1.51,0.22-1.88,0.65c-0.26,0.32-0.44,0.75-0.53,1.3h-3.57c0.08-1.24,0.43-2.26,1.04-3.05
			c0.98-1.25,2.67-1.87,5.06-1.87c1.56,0,2.94,0.31,4.15,0.92c1.21,0.62,1.81,1.78,1.81,3.48v6.5c0,0.45,0.01,1,0.03,1.64
			c0.03,0.49,0.1,0.81,0.22,0.99c0.12,0.17,0.3,0.32,0.55,0.43v0.55h-4.03c-0.11-0.29-0.19-0.55-0.23-0.81
			c-0.04-0.25-0.08-0.54-0.1-0.86c-0.51,0.55-1.11,1.03-1.78,1.42c-0.8,0.46-1.71,0.69-2.72,0.69c-1.29,0-2.35-0.37-3.2-1.1
			s-1.26-1.77-1.26-3.11c0-1.74,0.68-3,2.03-3.78c0.74-0.42,1.83-0.73,3.27-0.91L561.8,65.2z M564.06,66.93
			c-0.24,0.15-0.48,0.27-0.72,0.36c-0.24,0.09-0.57,0.18-0.99,0.25l-0.84,0.16c-0.79,0.14-1.36,0.31-1.7,0.51
			c-0.58,0.34-0.87,0.86-0.87,1.57c0,0.63,0.18,1.09,0.53,1.37c0.36,0.28,0.79,0.42,1.3,0.42c0.81,0,1.55-0.23,2.24-0.7
			c0.68-0.47,1.04-1.32,1.06-2.56V66.93z"/>
	</g>
</g>
</svg>
