<svg xmlns="http://www.w3.org/2000/svg" viewBox="0 0 467.31 242.51"><defs><style>.cls-1{fill:#fff;}</style></defs><title>logo-coopermiti-2</title><g id="Camada_2" data-name="Camada 2"><g id="Layer_1" data-name="Layer 1"><path class="cls-1" d="M326.08,33.74C303,2.33,253.65-9.33,206.21,8.11c-34.9,12.82-60.38,38.32-70.33,66.39h0c7-23.86,38.4-46.65,67.81-57.46C240,3.69,286.07,18.57,305.45,41.33l-24.71,9.08,26.44,17.68,26.44,17.68,8.7-30.59L351,24.58Z"/><path class="cls-1" d="M131.47,208.76c23.11,31.42,72.43,43.08,119.87,25.64,34.9-12.83,60.38-38.32,70.33-66.39h0c-7,23.87-38.41,46.65-67.82,57.46-36.33,13.35-82.38-1.53-101.75-24.29l24.71-9.08-26.44-17.68-26.44-17.68-8.7,30.6-8.71,30.59Z"/><path class="cls-1" d="M7.53,141.21C1.49,135.8,0,128.7,0,122.79a24.84,24.84,0,0,1,7-17c3.73-3.73,9.39-6.66,19-6.66a53.33,53.33,0,0,1,9,.75,52.41,52.41,0,0,0,6.35.93c.68.07.81.31.81.69s-.19,1.24-.31,3.48c-.13,2-.13,5.48-.19,6.41s-.19,1.31-.56,1.31-.5-.44-.5-1.31A8.61,8.61,0,0,0,38,105.06c-2.18-1.86-7-3.54-12.44-3.54-8.28,0-12.13,2.42-14.31,4.54C6.66,110.41,5.6,116,5.6,122.3c0,11.88,9.14,22.77,22.46,22.77,4.66,0,8.33-.56,10.82-3.12a11.66,11.66,0,0,0,2.3-5.22c.13-.68.25-.93.63-.93s.43.43.43.93a65,65,0,0,1-1.37,8c-.37,1.18-.5,1.31-1.62,1.81-2.48,1-7.21,1.43-11.19,1.43C18.73,147.93,12.44,145.63,7.53,141.21Z"/><path class="cls-1" d="M77.08,99.15c14,0,24.45,8.84,24.45,23.33,0,13.94-9.83,25.45-24.83,25.45-17,0-24.13-13.25-24.13-24.45C52.57,113.4,59.91,99.15,77.08,99.15Zm1.3,46.41c5.6,0,17.17-3.23,17.17-21.34,0-14.93-9.08-23-18.91-23-10.39,0-18.16,6.84-18.16,20.47C58.48,136.23,67.19,145.56,78.38,145.56Z"/><path class="cls-1" d="M137.11,99.15c14,0,24.45,8.84,24.45,23.33,0,13.94-9.83,25.45-24.83,25.45-17,0-24.13-13.25-24.13-24.45C112.6,113.4,119.94,99.15,137.11,99.15Zm1.3,46.41c5.6,0,17.17-3.23,17.17-21.34,0-14.93-9.08-23-18.91-23-10.39,0-18.16,6.84-18.16,20.47C118.51,136.23,127.22,145.56,138.41,145.56Z"/><path class="cls-1" d="M177.85,118.07c0-9.71,0-11.45-.12-13.44s-.62-3.11-2.68-3.55a11.93,11.93,0,0,0-2.11-.18c-.25,0-.5-.13-.5-.38s.31-.49,1-.49c2.8,0,6.53.18,7,.18,1.36,0,5-.18,7.84-.18,7.77,0,10.57,2.61,11.57,3.54A10.86,10.86,0,0,1,203,111c0,8.84-6.47,14.81-15.31,14.81a9.43,9.43,0,0,1-1.3-.06c-.31,0-.69-.13-.69-.44,0-.5.38-.56,1.68-.56,6,0,10.76-4.41,10.76-10.14a13.18,13.18,0,0,0-3.48-9.58,10.8,10.8,0,0,0-8.52-3.11,7.9,7.9,0,0,0-2.68.37c-.37.13-.49.56-.49,1.19V129c0,6,0,10.89.31,13.5.18,1.81.56,3.18,2.42,3.43a28.09,28.09,0,0,0,2.8.24c.37,0,.5.19.5.38s-.31.5-1,.5c-3.42,0-7.34-.19-7.65-.19s-4.1.19-6,.19c-.68,0-1-.13-1-.5,0-.19.13-.38.5-.38a10,10,0,0,0,1.87-.24c1.24-.25,1.55-1.62,1.8-3.43.31-2.61.31-7.52.31-13.5Z"/><path class="cls-1" d="M220,118.07c0-9.71,0-11.45-.13-13.44s-.62-3.11-2.67-3.55a12.13,12.13,0,0,0-2.12-.18c-.24,0-.49-.13-.49-.38s.31-.49,1-.49c1.43,0,3.11,0,4.48.06l2.55.12c.44,0,12.82,0,14.25-.06a16.87,16.87,0,0,0,2.67-.31c.31-.06.56-.31.87-.31s.25.25.25.56-.31,1.18-.5,2.92c-.06.62-.18,3.36-.31,4.11-.06.31-.18.68-.43.68s-.5-.31-.5-.81a6.72,6.72,0,0,0-.37-2.24c-.44-1-1.06-1.74-4.42-2.11-1.06-.13-7.84-.19-8.52-.19-.25,0-.38.19-.38.62v17.17c0,.44.07.63.38.63.81,0,8.46,0,9.89-.13s2.36-.25,2.92-.87.69-.81.94-.81.31.13.31.5-.31,1.43-.5,3.48c-.13,1.25-.25,3.55-.25,4s0,1.19-.44,1.19-.43-.25-.43-.56a6.34,6.34,0,0,0-.25-2.06c-.25-.87-.81-1.92-3.23-2.17-1.68-.19-7.84-.32-8.9-.32a.4.4,0,0,0-.44.44V129c0,2.12-.06,9.34,0,10.64.19,4.3,1.12,5.1,7.22,5.1,1.62,0,4.36,0,6-.68s2.37-1.93,2.8-4.48c.13-.68.25-.93.56-.93s.38.5.38.93-.5,4.73-.81,6c-.44,1.61-.94,1.61-3.36,1.61-4.67,0-8.09-.12-10.52-.18s-3.92-.19-4.85-.19c-.12,0-1.18,0-2.49.06s-2.67.13-3.61.13c-.68,0-1-.13-1-.5,0-.19.12-.38.5-.38a9.87,9.87,0,0,0,1.86-.24c1.25-.25,1.56-1.62,1.81-3.43.31-2.61.31-7.52.31-13.5Z"/><path class="cls-1" d="M261,118.07c0-9.71,0-11.45-.13-13.44s-.62-3.11-2.67-3.55a12.13,12.13,0,0,0-2.12-.18c-.25,0-.5-.13-.5-.38s.31-.49,1-.49c2.8,0,6.72.18,7,.18.68,0,5.41-.18,7.34-.18,3.92,0,8.09.37,11.38,2.73a10.88,10.88,0,0,1,4.3,8.46c0,4.61-1.93,9.21-7.53,14.37,5.1,6.54,9.33,12.07,12.94,15.93,3.36,3.55,6,4.23,7.59,4.48a15.4,15.4,0,0,0,2.42.18c.31,0,.56.19.56.38,0,.37-.37.5-1.49.5h-4.42c-3.48,0-5-.31-6.65-1.19-2.68-1.43-4.85-4.48-8.4-9.14-2.61-3.42-5.54-7.59-6.78-9.21a1,1,0,0,0-.81-.37l-7.65-.13c-.31,0-.44.19-.44.5V129c0,6,0,10.89.31,13.5.19,1.81.56,3.18,2.43,3.43a28.09,28.09,0,0,0,2.8.24c.37,0,.5.19.5.38s-.31.5-1,.5c-3.42,0-7.34-.19-7.65-.19-.06,0-4,.19-5.85.19-.68,0-1-.13-1-.5,0-.19.12-.38.49-.38a10,10,0,0,0,1.87-.24c1.24-.25,1.56-1.62,1.8-3.43.32-2.61.32-7.52.32-13.5Zm5,5.41a.8.8,0,0,0,.44.74c.93.56,3.79,1,6.53,1a8.13,8.13,0,0,0,4.67-1.18c2.17-1.49,3.79-4.85,3.79-9.58,0-7.78-4.11-12.44-10.76-12.44a18.61,18.61,0,0,0-4.17.37.75.75,0,0,0-.5.75Z"/><path class="cls-1" d="M357.33,139c.24,2.24.68,5.72,3.35,6.6a13.78,13.78,0,0,0,4.05.55c.31,0,.5.07.5.32s-.56.56-1.31.56c-1.37,0-8.09-.19-10.39-.38-1.43-.12-1.74-.31-1.74-.62s.12-.37.43-.43.38-1.12.25-2.24l-3-32.1h-.19l-15.24,32.34c-1.31,2.74-1.49,3.3-2.05,3.3s-.75-.62-1.93-2.86c-1.62-3-7-13.81-7.28-14.43-.56-1.12-7.53-16-8.21-17.73h-.25l-2.49,28.86c-.06,1-.06,2.12-.06,3.18a2,2,0,0,0,1.61,1.92,11.45,11.45,0,0,0,2.37.31c.25,0,.5.13.5.32,0,.43-.38.56-1.12.56-2.31,0-5.29-.19-5.79-.19s-3.55.19-5.22.19c-.63,0-1.06-.13-1.06-.56,0-.19.31-.32.62-.32a8.33,8.33,0,0,0,1.87-.18c2.05-.37,2.24-2.8,2.48-5.16l4.48-40.57c.07-.68.31-1.12.69-1.12s.62.25.93.94l19,39.13,18.29-39.07c.25-.56.5-1,.93-1s.62.5.75,1.68Z"/><path class="cls-1" d="M384.69,129c0,6,0,10.89.32,13.5.18,1.81.56,3.18,2.42,3.43a28.09,28.09,0,0,0,2.8.24c.37,0,.5.19.5.38s-.31.5-1,.5c-3.42,0-7.34-.19-7.65-.19s-4.23.19-6.09.19c-.69,0-1-.13-1-.5,0-.19.12-.38.5-.38a9.87,9.87,0,0,0,1.86-.24c1.25-.25,1.56-1.62,1.81-3.43.31-2.61.31-7.52.31-13.5V118.07c0-9.71,0-11.45-.12-13.44s-.75-3.17-2.12-3.49a8.4,8.4,0,0,0-1.93-.24c-.25,0-.5-.13-.5-.38s.31-.49,1-.49c2.05,0,6,.18,6.28.18s4.23-.18,6.1-.18c.68,0,1,.12,1,.49s-.24.38-.49.38a9.61,9.61,0,0,0-1.56.18c-1.68.31-2.18,1.37-2.3,3.55-.13,2-.13,3.73-.13,13.44Z"/><path class="cls-1" d="M423.2,129c0,6,0,10.89.31,13.5.19,1.81.56,3.18,2.43,3.43a28.09,28.09,0,0,0,2.8.24c.37,0,.5.19.5.38s-.31.5-1,.5c-3.42,0-7.34-.19-7.65-.19s-4.23.19-6.1.19c-.68,0-1-.13-1-.5,0-.19.12-.38.49-.38a10,10,0,0,0,1.87-.24c1.24-.25,1.56-1.62,1.8-3.43.32-2.61.32-7.52.32-13.5V102.7l-9.21.12c-3.86.07-5.35.5-6.35,2a10.52,10.52,0,0,0-1.05,1.92c-.19.5-.38.63-.63.63s-.31-.19-.31-.56c0-.63,1.25-6,1.37-6.47s.37-1.19.62-1.19a11.42,11.42,0,0,0,2.74.75c1.8.19,4.17.31,4.92.31H433.4a24.57,24.57,0,0,0,4.42-.31c.93-.12,1.49-.31,1.74-.31s.31.37.31.75c0,1.86-.18,6.16-.18,6.84s-.19.81-.44.81-.43-.19-.5-1.06l-.06-.68c-.18-1.87-1.68-3.3-7.65-3.43l-7.84-.12Z"/><path class="cls-1" d="M461.27,129c0,6,0,10.89.31,13.5.19,1.81.56,3.18,2.43,3.43a28.09,28.09,0,0,0,2.8.24c.37,0,.5.19.5.38s-.31.5-1,.5c-3.42,0-7.34-.19-7.65-.19s-4.23.19-6.1.19c-.68,0-1-.13-1-.5,0-.19.12-.38.5-.38a9.87,9.87,0,0,0,1.86-.24c1.25-.25,1.56-1.62,1.81-3.43.31-2.61.31-7.52.31-13.5V118.07c0-9.71,0-11.45-.13-13.44s-.74-3.17-2.11-3.49a8.53,8.53,0,0,0-1.93-.24c-.25,0-.5-.13-.5-.38s.31-.49,1-.49c2.05,0,6,.18,6.28.18s4.23-.18,6.1-.18c.68,0,1,.12,1,.49s-.25.38-.5.38a9.63,9.63,0,0,0-1.55.18c-1.68.31-2.18,1.37-2.3,3.55-.13,2-.13,3.73-.13,13.44Z"/></g></g></svg>